<svg xmlns="http://www.w3.org/2000/svg" viewBox="0 0 120 130" style="background:transparent"><defs><clipPath id="cc"><circle cx="60" cy="55" r="45"/></clipPath></defs><circle cx="60" cy="55" r="42" fill="none" stroke="#F5A623" stroke-width="3.5" stroke-dasharray="6 5"/><ellipse cx="60" cy="65" rx="24" ry="22" fill="#F5A623"/><ellipse cx="60" cy="65" rx="24" ry="7" fill="#E8821A"/><path d="M18 72 Q35 63 48 69 Q60 75 72 69 Q85 63 102 72 Q92 82 72 77 Q60 82 48 77 Q33 82 18 72Z" fill="#4DC8D0" clip-path="url(#cc)"/><path d="M12 84 Q32 74 48 80 Q60 87 72 80 Q88 74 108 84 Q96 96 72 90 Q60 96 48 90 Q30 96 12 84Z" fill="#2AACB8" clip-path="url(#cc)"/><path d="M8 97 Q30 86 48 93 Q60 100 72 93 Q90 86 112 97 Q98 110 72 104 Q60 110 48 104 Q28 110 8 97Z" fill="#1A8FA0"/><path d="M5 111 Q28 99 48 106 Q60 113 72 106 Q92 99 115 111 Q100 125 72 118 Q60 125 48 118 Q26 125 5 111Z" fill="#0F7A8C"/></svg>
